<mxfile host="app.diagrams.net" modified="2024-08-11T08:48:15.993Z" agent="Mozilla/5.0 (Windows NT 10.0; Win64; x64) AppleWebKit/537.36 (KHTML, like Gecko) Chrome/127.0.0.0 Safari/537.36" etag="uMCBbtx1sOHLIBDichrT" version="24.7.2" type="device">
  <diagram name="Page-1" id="gGhG6117xN52jGxHGsjl">
    <mxGraphModel dx="954" dy="1761" grid="1" gridSize="10" guides="1" tooltips="1" connect="1" arrows="1" fold="1" page="1" pageScale="1" pageWidth="827" pageHeight="1169" math="0" shadow="0">
      <root>
        <mxCell id="0" />
        <mxCell id="1" parent="0" />
        <mxCell id="8tkHss766R4aM95-DBF8-3" value="" style="edgeStyle=orthogonalEdgeStyle;rounded=0;orthogonalLoop=1;jettySize=auto;html=1;" edge="1" parent="1" source="8tkHss766R4aM95-DBF8-1" target="8tkHss766R4aM95-DBF8-2">
          <mxGeometry relative="1" as="geometry" />
        </mxCell>
        <mxCell id="8tkHss766R4aM95-DBF8-1" value="Adding SSH Fingerprint" style="rounded=0;whiteSpace=wrap;html=1;" vertex="1" parent="1">
          <mxGeometry x="310" y="10" width="120" height="60" as="geometry" />
        </mxCell>
        <mxCell id="8tkHss766R4aM95-DBF8-2" value="Open Security" style="whiteSpace=wrap;html=1;rounded=0;" vertex="1" parent="1">
          <mxGeometry x="320" y="110" width="120" height="60" as="geometry" />
        </mxCell>
        <mxCell id="8tkHss766R4aM95-DBF8-7" value="" style="edgeStyle=orthogonalEdgeStyle;rounded=0;orthogonalLoop=1;jettySize=auto;html=1;" edge="1" parent="1" source="8tkHss766R4aM95-DBF8-6" target="8tkHss766R4aM95-DBF8-2">
          <mxGeometry relative="1" as="geometry" />
        </mxCell>
        <mxCell id="8tkHss766R4aM95-DBF8-9" value="" style="edgeStyle=orthogonalEdgeStyle;rounded=0;orthogonalLoop=1;jettySize=auto;html=1;" edge="1" parent="1" source="8tkHss766R4aM95-DBF8-6" target="8tkHss766R4aM95-DBF8-8">
          <mxGeometry relative="1" as="geometry" />
        </mxCell>
        <mxCell id="8tkHss766R4aM95-DBF8-15" value="" style="edgeStyle=orthogonalEdgeStyle;rounded=0;orthogonalLoop=1;jettySize=auto;html=1;" edge="1" parent="1" source="8tkHss766R4aM95-DBF8-6" target="8tkHss766R4aM95-DBF8-14">
          <mxGeometry relative="1" as="geometry" />
        </mxCell>
        <mxCell id="8tkHss766R4aM95-DBF8-17" value="" style="edgeStyle=orthogonalEdgeStyle;rounded=0;orthogonalLoop=1;jettySize=auto;html=1;" edge="1" parent="1" source="8tkHss766R4aM95-DBF8-6" target="8tkHss766R4aM95-DBF8-16">
          <mxGeometry relative="1" as="geometry" />
        </mxCell>
        <mxCell id="8tkHss766R4aM95-DBF8-19" value="" style="edgeStyle=orthogonalEdgeStyle;rounded=0;orthogonalLoop=1;jettySize=auto;html=1;" edge="1" parent="1" source="8tkHss766R4aM95-DBF8-6" target="8tkHss766R4aM95-DBF8-18">
          <mxGeometry relative="1" as="geometry" />
        </mxCell>
        <mxCell id="8tkHss766R4aM95-DBF8-21" value="" style="edgeStyle=orthogonalEdgeStyle;rounded=0;orthogonalLoop=1;jettySize=auto;html=1;" edge="1" parent="1" source="8tkHss766R4aM95-DBF8-6" target="8tkHss766R4aM95-DBF8-20">
          <mxGeometry relative="1" as="geometry" />
        </mxCell>
        <mxCell id="8tkHss766R4aM95-DBF8-6" value="Goto Repository settings. Remember repository settings are different from account settings" style="rounded=0;whiteSpace=wrap;html=1;" vertex="1" parent="1">
          <mxGeometry x="170" y="-10" width="120" height="100" as="geometry" />
        </mxCell>
        <mxCell id="8tkHss766R4aM95-DBF8-13" value="" style="edgeStyle=orthogonalEdgeStyle;rounded=0;orthogonalLoop=1;jettySize=auto;html=1;" edge="1" parent="1" source="8tkHss766R4aM95-DBF8-8" target="8tkHss766R4aM95-DBF8-12">
          <mxGeometry relative="1" as="geometry" />
        </mxCell>
        <mxCell id="8tkHss766R4aM95-DBF8-8" value="Wikis -&amp;gt;&amp;nbsp;&lt;div&gt;Allow documentation&lt;/div&gt;&lt;div&gt;for repository&lt;/div&gt;" style="whiteSpace=wrap;html=1;rounded=0;" vertex="1" parent="1">
          <mxGeometry x="160" y="-120" width="120" height="60" as="geometry" />
        </mxCell>
        <mxCell id="8tkHss766R4aM95-DBF8-12" value="Will public Wikis&lt;div&gt;Be editable only&amp;nbsp;&lt;/div&gt;&lt;div&gt;by collaborators?&lt;/div&gt;" style="rhombus;whiteSpace=wrap;html=1;rounded=0;fillColor=#f8cecc;strokeColor=#b85450;" vertex="1" parent="1">
          <mxGeometry x="329" y="-165" width="170" height="150" as="geometry" />
        </mxCell>
        <mxCell id="8tkHss766R4aM95-DBF8-14" value="Sponsorship-&amp;gt;&lt;div&gt;How to gather funds&lt;/div&gt;&lt;div&gt;for repository&lt;/div&gt;&lt;div&gt;(disabled by default)&lt;/div&gt;" style="whiteSpace=wrap;html=1;rounded=0;" vertex="1" parent="1">
          <mxGeometry x="20" width="120" height="60" as="geometry" />
        </mxCell>
        <mxCell id="8tkHss766R4aM95-DBF8-16" value="Preserve code in Github Archive Program" style="whiteSpace=wrap;html=1;rounded=0;" vertex="1" parent="1">
          <mxGeometry x="30" y="90" width="120" height="60" as="geometry" />
        </mxCell>
        <mxCell id="8tkHss766R4aM95-DBF8-18" value="Discussions-&amp;gt;&lt;div&gt;&lt;span style=&quot;color: rgb(141, 150, 160); font-family: -apple-system, BlinkMacSystemFont, &amp;quot;Segoe UI&amp;quot;, &amp;quot;Noto Sans&amp;quot;, Helvetica, Arial, sans-serif, &amp;quot;Apple Color Emoji&amp;quot;, &amp;quot;Segoe UI Emoji&amp;quot;; text-align: start; background-color: rgb(13, 17, 23);&quot;&gt;Discussions is the space for your community to have conversations, ask questions and post answers without opening issues&lt;/span&gt;&lt;br&gt;&lt;/div&gt;" style="whiteSpace=wrap;html=1;rounded=0;" vertex="1" parent="1">
          <mxGeometry x="560" y="-25" width="120" height="130" as="geometry" />
        </mxCell>
        <mxCell id="8tkHss766R4aM95-DBF8-20" value="Project, show your repository" style="whiteSpace=wrap;html=1;rounded=0;" vertex="1" parent="1">
          <mxGeometry x="170" y="190" width="120" height="60" as="geometry" />
        </mxCell>
      </root>
    </mxGraphModel>
  </diagram>
</mxfile>
